<svg width="94" height="89" viewBox="0 0 94 89" fill="none" xmlns="http://www.w3.org/2000/svg">
<path d="M76.3139 67.1181C76.0724 64.3508 75.8182 61.5326 74.6853 58.9657C73.5524 56.3989 71.3772 54.0788 68.4965 53.3945C68.193 53.3229 67.6178 53.1765 66.836 52.9744C65.6873 52.6291 64.5115 52.3474 63.3675 52.069C55.3069 49.9493 41.0114 46.127 41.0114 46.127C41.0067 46.1333 41.0003 46.1381 40.9955 46.1445C40.9765 46.1381 40.9574 46.1333 40.9383 46.127C40.5745 46.5296 39.931 46.9067 39.0746 47.2616C38.2181 46.9067 37.573 46.5311 37.2108 46.127C37.1917 46.1333 37.1726 46.1381 37.1536 46.1445C37.1472 46.1381 37.1424 46.1333 37.1377 46.127C37.1377 46.127 22.8438 49.9477 14.7817 52.069C13.6376 52.3474 12.4634 52.6291 11.3131 52.9744C10.5313 53.1765 9.95613 53.3229 9.65265 53.3945C6.77354 54.0804 4.59831 56.4005 3.46383 58.9657C2.33093 61.5326 2.07671 64.3508 1.83519 67.1181C1.22346 74.1247 0.611732 81.1313 0 88.1395C3.87218 88.1395 7.74435 88.1395 11.6165 88.1395C11.642 88.1395 11.6658 88.1395 11.6912 88.1395C12.6875 88.1395 13.6853 88.1395 14.6816 88.1395C15.0057 88.1395 15.3298 88.1395 15.6508 88.1395C23.6875 88.1395 30.7407 88.1395 37.6604 88.1395C38.6042 88.1395 39.5465 88.1395 40.4887 88.1395C47.4068 88.1395 54.4616 88.1395 62.4983 88.1395C62.8209 88.1395 63.145 88.1395 63.4676 88.1395C64.4638 88.1395 65.4616 88.1395 66.4579 88.1395C66.4833 88.1395 66.5071 88.1395 66.5326 88.1395C70.4047 88.1395 74.2769 88.1395 78.1491 88.1395C77.5374 81.1313 76.9256 74.1247 76.3139 67.1181Z" fill="#3A4855"/>
<path d="M14.4257 88.1382C14.9945 82.9922 14.6413 77.7636 13.3942 72.9494C13.1551 72.0221 12.8816 71.1107 12.5753 70.2168C12.5238 71.6395 12.4738 73.0637 12.4222 74.4848C12.4034 75.0183 12.3847 75.5486 12.3644 76.0805C12.3566 80.0992 12.3472 84.1179 12.3394 88.1366C13.0348 88.1382 13.7302 88.1382 14.4257 88.1382Z" fill="#0B212E"/>
<path d="M63.7235 88.1382C63.1547 82.9922 63.5079 77.7636 64.7549 72.9494C64.9941 72.0221 65.2675 71.1107 65.5738 70.2168C65.6254 71.6395 65.6754 73.0637 65.727 74.4848C65.7458 75.0183 65.7645 75.5486 65.7848 76.0805C65.7926 80.0992 65.802 84.1179 65.8098 88.1366C65.1144 88.1382 64.419 88.1382 63.7235 88.1382Z" fill="#0B212E"/>
<path d="M47.888 47.8838C47.8753 47.8934 47.8609 47.9046 47.8481 47.9142C42.8035 51.8118 35.5797 51.7958 30.5542 47.8774C30.8063 43.9765 31.0567 40.0757 31.3104 36.1749C33.946 35.1857 36.5816 34.1964 39.2171 33.2072C39.2171 33.204 39.2171 33.2024 39.2171 33.1992C41.8559 34.19 44.4931 35.1793 47.1302 36.1701C47.3839 40.0741 47.636 43.9797 47.888 47.8838Z" fill="#F1947D"/>
<path d="M31.1416 37.0822C35.5245 41.9423 41.4214 45.4013 47.8878 47.3013C47.6449 43.5873 47.4019 39.8717 47.159 36.1577C44.4977 35.171 41.8381 34.1859 39.1769 33.1992C39.1769 33.2024 39.1769 33.204 39.1769 33.2072C36.5188 34.1923 33.8592 35.1774 31.2011 36.1625C31.1818 36.4701 31.1625 36.7762 31.1416 37.0822Z" fill="#DD6753"/>
<path d="M39.3322 47.8887H39.1098H30.6028C30.49 47.9189 30.3756 47.9492 30.2612 47.9794C30.2485 49.5143 30.2263 70.9208 39.221 88.1368V88.1384C39.221 88.1384 39.221 88.1384 39.221 88.1368C39.221 88.1368 39.221 88.1368 39.221 88.1384V88.1368C48.2156 70.9208 48.1934 49.5143 48.1807 47.9794C48.0663 47.9492 47.9519 47.9189 47.8391 47.8887H39.3322Z" fill="#FEF7ED"/>
<path d="M39.2212 47.8887L36.4302 50.7747L39.2212 55.5273L42.0123 50.7747L39.2212 47.8887Z" fill="#EF6D53"/>
<path d="M30.2603 47.9143L36.5034 53.7641L39.0741 47.8223L30.78 43.1875L30.2603 47.9143Z" fill="#FEF7ED"/>
<path d="M48.1818 47.9143L41.7289 53.7641L39.0742 47.8223L47.6448 43.1875L48.1818 47.9143Z" fill="#FEF7ED"/>
<path d="M35.2549 78.8186C36.331 81.9669 37.6364 85.1168 39.2219 88.1381L39.2283 88.1285C40.8106 85.1136 42.1128 81.9685 43.1873 78.8265L39.9462 52.8828H38.4944L35.2549 78.8186Z" fill="#EF6D53"/>
<path d="M41.6766 54.0583C41.6655 54.0583 41.6545 54.0568 41.6449 54.0552C41.5942 54.0443 41.553 54.0114 41.5324 53.9645L39.0681 48.4343L36.6149 53.963C36.5943 54.0099 36.553 54.0427 36.5023 54.0536C36.4515 54.0646 36.3992 54.0505 36.3627 54.0161L30.0181 48.2498C29.953 48.192 29.9499 48.0919 30.0085 48.0294C30.0672 47.9653 30.1687 47.9622 30.2321 48.02L36.4135 53.6378L38.9222 47.9825C38.9475 47.9262 39.0046 47.8887 39.0681 47.8887C39.1315 47.8887 39.1886 47.9246 39.214 47.9825L41.7353 53.6378L47.9167 48.02C47.9817 47.9622 48.0816 47.9653 48.1403 48.0294C48.1989 48.0935 48.1958 48.192 48.1307 48.2498L41.7861 54.0161C41.7544 54.0427 41.7163 54.0583 41.6766 54.0583Z" fill="#0B212E"/>
<path d="M39.368 88.1371H38.7796L22.0342 64.5576L25.8926 61.2969L22.0551 59.6165L25.8122 49.2102C26.0019 49.161 26.1916 49.1117 26.3797 49.0625L22.6596 59.3608L26.7864 61.1667L22.6805 64.6386L39.2056 87.9099L39.368 88.1371Z" fill="#0B212E"/>
<path d="M56.1143 64.5576L39.6527 88.1371H39.0742L39.2338 87.9099L55.4789 64.6386L51.4426 61.1667L55.4995 59.3608L51.8424 49.0625C52.0273 49.1117 52.2138 49.161 52.4003 49.2102L56.0937 59.6165L52.3228 61.2969L56.1143 64.5576Z" fill="#0B212E"/>
<path d="M53.6915 13.3168C53.415 10.1602 51.9956 6.95872 49.4653 4.82918C46.6505 2.46053 42.7296 2.10748 39.128 2.05934C36.2004 2.01922 33.198 2.42202 30.512 3.58387C26.5624 5.29136 24.8029 9.38192 24.458 13.3184C24.1576 16.7366 24.8347 20.1564 25.5102 23.5264C25.5102 23.5264 39.0597 24.3818 39.0597 24.385C39.0644 24.385 39.0708 24.3834 39.0756 24.3834C39.0756 24.3834 39.0915 24.385 39.0915 24.3818C43.6085 24.0961 48.1239 23.8105 52.6409 23.5264C53.3132 20.1564 53.9903 16.7366 53.6915 13.3168Z" fill="#3D3535"/>
<path d="M50.6447 15.8217C49.2862 11.745 46.444 8.74204 43.3085 8.07718C42.9202 7.99447 42.5286 7.94993 42.1371 7.94357C41.094 7.92766 37.055 7.92766 36.012 7.94357C35.6205 7.94993 35.2289 7.99447 34.8406 8.07718C31.7051 8.74363 28.8613 11.745 27.5044 15.8217C26.3552 19.27 26.2601 23.2623 26.6453 27.0399C26.9734 30.2481 27.46 31.5619 28.9104 34.0623C30.513 36.8283 32.6641 38.8913 34.9499 40.345C35.9819 41.0004 42.1672 41.0004 43.1991 40.345C45.4849 38.8913 47.636 36.8283 49.2386 34.0623C50.6891 31.5619 51.1757 30.2481 51.5038 27.0399C51.889 23.2623 51.7939 19.27 50.6447 15.8217Z" fill="#F1947D"/>
<path d="M53.7565 13.6977C53.7518 13.5937 53.7454 13.4881 53.7438 13.3841C53.7359 12.541 53.6644 11.698 53.5326 10.8645C53.153 8.44715 52.2509 6.05546 50.615 4.15169C48.1627 1.29764 44.4414 0.267367 40.7074 0.0481943C39.5749 -0.0189974 38.4393 -0.0109949 37.3402 0.0417986C34.4861 0.180981 31.5875 0.811302 29.283 2.51029C27.2246 4.02531 25.8634 6.21064 25.1265 8.57034C24.6421 10.1222 24.3975 11.7539 24.3848 13.3745C24.3848 13.9425 24.3848 14.5104 24.3848 15.0783C24.5277 15.0751 24.6564 15.1647 24.6961 15.2975C25.1582 16.7981 26.0302 19.6074 26.1207 19.6842C26.7338 16.3918 28.5428 13.4305 31.5224 11.6196C35.6074 9.13507 41.3236 8.9831 45.623 11.082C46.225 11.3764 46.8015 11.7172 47.3431 12.1043C48.474 12.9106 49.4444 13.9105 50.1972 15.0527C50.634 15.7167 50.9977 16.4238 51.2884 17.1581C51.4488 17.5628 51.587 17.974 51.7061 18.3915C51.749 18.5419 52.0905 19.5226 52.0174 19.673C52.1413 19.4666 52.9068 17.0045 53.3674 15.5087C53.4913 15.5327 53.6152 15.5583 53.7391 15.5823C53.7391 15.5567 53.7407 15.5311 53.7407 15.5055C53.7422 15.4399 53.7422 15.3727 53.7438 15.3071C53.7454 15.2159 53.747 15.1231 53.7486 15.0319C53.7502 14.9296 53.7518 14.8288 53.7534 14.7264C53.755 14.6288 53.7565 14.5328 53.7581 14.4352C53.7597 14.3584 53.7613 14.2816 53.7613 14.2048C53.7629 14.1585 53.7629 14.1121 53.7629 14.0657C53.7661 13.9425 53.7629 13.8193 53.7565 13.6977Z" fill="#3D3535"/>
<path d="M35.5492 21.1534C35.5492 22.1268 35.0896 22.9161 34.521 22.9161C33.9523 22.9161 33.4927 22.1268 33.4927 21.1534C33.4927 20.18 33.9523 19.3906 34.521 19.3906C35.0896 19.3906 35.5492 20.18 35.5492 21.1534Z" fill="#3D3535"/>
<path d="M43.4814 21.1534C43.4814 22.1268 43.9411 22.9161 44.5097 22.9161C45.0767 22.9161 45.538 22.1268 45.538 21.1534C45.538 20.18 45.0784 19.3906 44.5097 19.3906C43.9411 19.3906 43.4814 20.18 43.4814 21.1534Z" fill="#3D3535"/>
<path d="M36.7418 28.045C36.6366 28.4157 37.0191 28.6563 37.3921 28.6982C37.8479 28.75 38.318 28.7528 38.777 28.7654C39.7189 28.7933 40.672 28.8087 41.6139 28.7598C41.8259 28.7486 42.0506 28.708 42.1893 28.5556C42.3168 28.4171 42.3566 28.2045 42.2243 28.0576C42.1526 27.9779 42.0394 27.9373 41.9311 27.9933C41.8418 28.0395 41.786 28.1709 41.8578 28.2506C41.8833 28.2786 41.8912 28.3024 41.8307 28.3402C41.7733 28.3779 41.6761 28.3793 41.6091 28.3821C41.3796 28.3947 41.1501 28.3961 40.9206 28.4003C40.4584 28.4087 39.9978 28.4101 39.5357 28.4045C39.0751 28.3989 38.6113 28.3849 38.1507 28.3653C37.9323 28.3555 37.7092 28.3513 37.4925 28.3304C37.3841 28.3206 37.1179 28.2828 37.1578 28.1373C37.2231 27.9066 36.8088 27.8115 36.7418 28.045Z" fill="#3D3535"/>
<path d="M33.2779 16.8222C32.7217 16.9425 32.2156 17.1873 31.686 17.4012C31.4227 17.5075 31.1595 17.6124 30.8978 17.7187C30.8069 17.7551 30.6785 17.8082 30.5547 17.8572C31.0608 17.832 31.5684 17.8054 32.0745 17.7802C33.1901 17.7243 34.312 17.7383 35.4151 17.9089C35.7865 17.9663 36.1625 17.8208 36.3662 17.5383C36.5229 17.3229 36.3787 17.0334 36.0936 16.9943C35.3383 16.8922 34.5831 16.7146 33.8138 16.7509C33.6289 16.7579 33.4518 16.7845 33.2779 16.8222Z" fill="#3D3535"/>
<path d="M45.7528 16.8222C46.309 16.9425 46.8151 17.1873 47.3447 17.4012C47.6079 17.5075 47.8712 17.6124 48.1328 17.7187C48.2237 17.7551 48.3522 17.8082 48.476 17.8572C47.9699 17.832 47.4622 17.8054 46.9561 17.7802C45.8405 17.7243 44.7186 17.7383 43.6156 17.9089C43.2442 17.9663 42.8697 17.8208 42.6645 17.5383C42.5078 17.3229 42.6519 17.0334 42.9371 16.9943C43.6923 16.8922 44.4476 16.7146 45.2169 16.7509C45.4018 16.7579 45.5804 16.7845 45.7528 16.8222Z" fill="#3D3535"/>
<path d="M43.4817 7.6377C43.4817 7.6377 39.6187 15.6498 26.5489 20.8584C26.7931 20.8584 24.9727 16.0515 24.9727 16.0515C26.3761 13.9444 27.781 11.8374 29.1844 9.73198C33.9512 9.03388 38.7164 8.33579 43.4817 7.6377Z" fill="#3D3535"/>
<path d="M27.1646 21.7922C27.1167 21.1101 26.8209 20.4964 26.3684 20.1641C25.9911 19.8859 25.5962 19.6601 25.1725 19.509C24.4738 19.2594 23.6552 19.3818 23.1452 20.0608C22.5776 20.8176 22.5376 22.0339 22.7167 23.0753C23.094 25.2758 24.2596 27.1392 25.6106 28.4779C25.8536 28.7196 26.159 28.8357 26.4579 28.7753C27.211 28.621 27.3165 27.5764 27.3213 26.7226C27.3325 25.077 27.2797 23.4314 27.1646 21.7922Z" fill="#F1947D"/>
<path d="M26.2684 25.1247C26.2284 25.7051 26.1885 26.2872 26.1485 26.8694C26.1421 26.9525 26.1923 27.0253 26.2349 27.0253C26.2865 27.0253 26.3161 26.9543 26.3213 26.8694C26.3612 26.289 26.4012 25.7068 26.4412 25.1247C26.4476 25.0415 26.3973 24.9705 26.3548 24.9688C26.3032 24.9705 26.2736 25.0415 26.2684 25.1247Z" fill="#3D3535"/>
<path d="M23.7979 22.7509C23.8736 23.7991 24.2259 24.7869 24.7946 25.5177C24.8904 25.6415 25.0372 25.4449 24.9414 25.321C24.4144 24.6444 24.076 23.7248 24.005 22.7509C23.9926 22.576 23.7855 22.5744 23.7979 22.7509C23.7979 22.7525 23.7979 22.7525 23.7979 22.7509Z" fill="#3D3535"/>
<path d="M26.4277 23.8036C26.3211 23.2066 26.1095 22.6209 25.8649 22.1094C25.5843 21.5253 25.2347 21.0154 24.8302 20.591C24.7221 20.4781 24.617 20.7298 24.7236 20.8411C25.1861 21.3268 25.5718 21.948 25.8555 22.6467C25.9527 22.8871 26.0358 23.1356 26.1064 23.3922C26.0797 23.3567 26.0531 23.3244 26.0295 23.297C25.8743 23.1227 25.6157 23.0291 25.4761 23.2922C25.3444 23.5439 25.4464 23.8537 25.589 24.0457C25.7333 24.2409 25.9511 24.4023 26.1581 24.3797C26.3901 24.3539 26.4795 24.0909 26.4277 23.8036Z" fill="#3D3535"/>
<path d="M50.984 21.7932C51.0319 21.1111 51.3277 20.4974 51.7802 20.1651C52.1575 19.8868 52.5524 19.6611 52.9761 19.51C53.6732 19.2604 54.4934 19.3828 55.0034 20.0617C55.5726 20.8185 55.611 22.0349 55.4319 23.0763C55.0546 25.2768 53.8906 27.1402 52.538 28.4789C52.295 28.7206 51.9896 28.8367 51.6906 28.7762C50.9376 28.622 50.8337 27.5774 50.8273 26.7236C50.8177 25.078 50.8705 23.4324 50.984 21.7932Z" fill="#F1947D"/>
<path d="M51.881 25.1286C51.9209 25.709 51.9609 26.2911 52.0009 26.8733C52.0061 26.9564 51.9571 27.0292 51.9145 27.0292C51.8629 27.0292 51.8332 26.9582 51.8281 26.8733C51.7881 26.2929 51.7481 25.7107 51.7081 25.1286C51.7016 25.0454 51.752 24.9744 51.7945 24.9727C51.8461 24.9744 51.8758 25.0454 51.881 25.1286Z" fill="#3D3535"/>
<path d="M54.3508 22.7548C54.2751 23.803 53.9228 24.7908 53.3542 25.5216C53.2584 25.6454 53.1116 25.4488 53.2074 25.3249C53.7343 24.6484 54.0727 23.7287 54.1437 22.7548C54.1561 22.5799 54.3647 22.5783 54.3508 22.7548Z" fill="#3D3535"/>
<path d="M51.7211 23.8075C51.8277 23.2105 52.0395 22.6248 52.2843 22.1133C52.5651 21.5292 52.915 21.0193 53.3198 20.5949C53.4281 20.482 53.5316 20.7337 53.4265 20.845C52.9637 21.3307 52.5761 21.9519 52.2937 22.6506C52.1965 22.891 52.1133 23.1395 52.0427 23.3961C52.0694 23.3606 52.096 23.3283 52.1196 23.3009C52.2765 23.1266 52.5338 23.033 52.6734 23.2961C52.8068 23.5478 52.7032 23.8576 52.5604 24.0496C52.4161 24.2448 52.198 24.4062 51.9893 24.3836C51.7603 24.3578 51.6709 24.0948 51.7211 23.8075Z" fill="#3D3535"/>
<path d="M39.3685 35.5498C41.6408 35.5498 43.4816 33.8402 43.4816 31.7305C40.7395 31.7305 37.9974 31.7305 35.2554 31.7305C35.2554 33.8387 37.0977 35.5498 39.3685 35.5498Z" fill="white"/>
<path d="M93.7203 64.0469C93.7203 75.5672 84.447 84.9062 73.0079 84.9062C61.5687 84.9062 52.2954 75.5672 52.2954 64.0469C52.2954 52.5265 61.5687 43.1875 73.0079 43.1875C84.447 43.1875 93.7203 52.5265 93.7203 64.0469Z" fill="white"/>
<path d="M90.1947 64.1947C90.1947 73.6868 82.4998 81.3817 73.0077 81.3817C63.5157 81.3817 55.8208 73.6868 55.8208 64.1947C55.8208 54.7027 63.5157 47.0078 73.0077 47.0078C82.4998 47.0078 90.1947 54.7027 90.1947 64.1947Z" fill="white"/>
<path fill-rule="evenodd" clip-rule="evenodd" d="M73.0077 76.6075C79.8631 76.6075 85.4205 71.0501 85.4205 64.1947C85.4205 57.3394 79.8631 51.782 73.0077 51.782C66.1523 51.782 60.5949 57.3394 60.5949 64.1947C60.5949 71.0501 66.1523 76.6075 73.0077 76.6075ZM73.0077 81.3817C82.4998 81.3817 90.1947 73.6868 90.1947 64.1947C90.1947 54.7027 82.4998 47.0078 73.0077 47.0078C63.5157 47.0078 55.8208 54.7027 55.8208 64.1947C55.8208 73.6868 63.5157 81.3817 73.0077 81.3817Z" fill="#FF0000"/>
<path fill-rule="evenodd" clip-rule="evenodd" d="M86.1316 74.6932L59.8168 59.5004L62.2031 55.3672L88.5179 70.56L86.1316 74.6932Z" fill="#FF0000"/>
</svg>
