<svg width="230" height="230" viewBox="0 0 230 230" fill="none" xmlns="http://www.w3.org/2000/svg">
    <g id="ICON" clip-path="url(#clip0_1_656)">
        <rect width="230" height="230" fill="white" />
        <rect id="Rectangle 1707454627" width="230" height="230" rx="53" fill="#141414" />
        <g id="Group 1000001214">
            <g id="Group">
                <path id="Vector"
                    d="M71.1469 94.2437H62.5699L58.1523 54.4541H64.2466L67.6 85.8279L70.5988 54.4541H76.6285L79.7562 86.0536L82.9806 54.4541H88.4299L83.9802 94.2437H75.6933L73.404 73.059L71.1469 94.2437Z"
                    fill="white" />
                <path id="Vector_2"
                    d="M91.5547 94.2437V54.4541H97.8101V71.5114H104.904V54.4541H111.256V94.2437H104.904V77.1864H97.8101V94.2437H91.5547Z"
                    fill="white" />
                <path id="Vector_3"
                    d="M124.804 54C130.931 54 134.284 57.6435 134.284 63.9957V84.6966C134.284 91.0488 130.931 94.6925 124.804 94.6925C118.678 94.6925 115.324 91.0488 115.324 84.6966V63.9957C115.324 57.6435 118.678 54 124.804 54ZM124.804 89.0174C126.803 89.0174 128.029 87.9535 128.029 85.0837V63.6088C128.029 60.7713 126.771 59.6751 124.804 59.6751C122.805 59.6751 121.58 60.739 121.58 63.6088V85.0837C121.58 87.9212 122.805 89.0174 124.804 89.0174Z"
                    fill="white" />
            </g>
            <g id="Group_2">
                <path id="Vector_4"
                    d="M63.4401 117.093V119.189C63.4401 125.186 61.6021 129.023 57.5071 130.926C62.4405 132.828 64.3429 137.246 64.3429 143.437V148.177C64.3429 157.173 59.6029 162.01 50.4133 162.01H36V103.679H49.8329C59.345 103.679 63.4401 108.097 63.4401 117.093ZM45.1897 127.411H48.7689C52.1868 127.411 54.2827 125.928 54.2827 121.252V117.996C54.2827 113.836 52.8639 111.998 49.6072 111.998H45.1897V127.411ZM45.1897 153.69H50.4456C53.541 153.69 55.1855 152.272 55.1855 147.951V142.856C55.1855 137.439 53.4442 135.762 49.2847 135.762H45.1897V153.69Z"
                    fill="white" />
                <path id="Vector_5"
                    d="M79.0187 103.679V153.69H94.1092V162.01H69.8613V103.679H79.0187Z" fill="white" />
                <path id="Vector_6"
                    d="M118.546 162.01L116.966 151.433H105.713L104.133 162.01H95.7168L105.068 103.679H118.481L127.832 162.01H118.546ZM115.708 143.501L111.291 113.997L106.873 143.501H115.708Z"
                    fill="white" />
                <path id="Vector_7"
                    d="M158.628 148.013C158.628 157.364 153.953 162.684 144.957 162.684C135.961 162.684 131.285 157.364 131.285 148.013V117.671C131.285 108.32 135.961 103 144.957 103C153.953 103 158.628 108.32 158.628 117.671V123.346H149.955V117.091C149.955 112.931 148.117 111.351 145.215 111.351C142.28 111.351 140.475 112.931 140.475 117.091V148.594C140.475 152.753 142.313 154.269 145.215 154.269C148.117 154.269 149.955 152.785 149.955 148.594V140.275H158.628V148.013Z"
                    fill="white" />
                <path id="Vector_8"
                    d="M173.364 144.082V162.01H164.207V103.679H173.364V129.088L185.359 103.679H194.517L181.748 129.668L194.517 162.01H185.101L176.17 138.761L173.364 144.082Z"
                    fill="white" />
            </g>
            <g id="Group_3">
                <path id="Vector_9" d="M150.377 54.9043V94.694H144.121V54.9043H150.377Z"
                    fill="white" />
                <path id="Vector_10"
                    d="M163.34 54.4502C169.434 54.4502 172.53 58.0937 172.53 64.4459V65.7035H166.629V64.059C166.629 61.2215 165.501 60.1251 163.501 60.1251C161.502 60.1251 160.374 61.1892 160.374 64.059C160.374 72.2491 172.594 73.7645 172.594 85.1468C172.594 91.499 169.402 95.1427 163.276 95.1427C157.149 95.1427 153.957 91.499 153.957 85.1468V82.6962H159.858V85.5337C159.858 88.3712 161.115 89.4031 163.082 89.4031C165.081 89.4031 166.307 88.3712 166.307 85.5337C166.307 77.3436 154.086 75.8282 154.086 64.4459C154.15 58.0937 157.278 54.4502 163.34 54.4502Z"
                    fill="white" />
            </g>
        </g>
    </g>
    <defs>
        <clipPath id="clip0_1_656">
            <rect width="230" height="230" fill="white" />
        </clipPath>
    </defs>
</svg>