<svg width="79" height="55" viewBox="0 0 79 55" fill="none" xmlns="http://www.w3.org/2000/svg">
<g id="Group 1000001214">
<g id="Group">
<path id="Vector" d="M17.5353 20.0524H13.2604L11.0586 0.220703H14.0961L15.7675 15.8579L17.2621 0.220703H20.2674L21.8263 15.9704L23.4334 0.220703H26.1494L23.9316 20.0524H19.8013L18.6603 9.49368L17.5353 20.0524Z" fill="#141414"/>
<path id="Vector_2" d="M27.71 20.0524V0.220703H30.8278V8.72229H34.3634V0.220703H37.5294V20.0524H34.3634V11.5508H30.8278V20.0524H27.71Z" fill="#141414"/>
<path id="Vector_3" d="M44.2737 0C47.3273 0 48.9987 1.816 48.9987 4.98201V15.2997C48.9987 18.4657 47.3273 20.2818 44.2737 20.2818C41.2202 20.2818 39.5488 18.4657 39.5488 15.2997V4.98201C39.5488 1.816 41.2202 0 44.2737 0ZM44.2737 17.4532C45.2702 17.4532 45.8809 16.9229 45.8809 15.4926V4.78917C45.8809 3.37491 45.2541 2.82853 44.2737 2.82853C43.2773 2.82853 42.6666 3.35883 42.6666 4.78917V15.4926C42.6666 16.9069 43.2773 17.4532 44.2737 17.4532Z" fill="#141414"/>
</g>
<g id="Group_2">
<path id="Vector_4" d="M13.6765 31.4396V32.4841C13.6765 35.4733 12.7605 37.3858 10.7195 38.334C13.1784 39.2822 14.1265 41.484 14.1265 44.5696V46.932C14.1265 51.4159 11.7641 53.8266 7.1838 53.8266H0V24.7539H6.89453C11.6355 24.7539 13.6765 26.9557 13.6765 31.4396ZM4.58028 36.5823H6.3642C8.06774 36.5823 9.11235 35.843 9.11235 33.5127V31.8895C9.11235 29.8163 8.4052 28.9003 6.78202 28.9003H4.58028V36.5823ZM4.58028 49.6802H7.19988C8.74271 49.6802 9.56234 48.9732 9.56234 46.8196V44.2804C9.56234 41.5804 8.69448 40.7447 6.6213 40.7447H4.58028V49.6802Z" fill="#141414"/>
<path id="Vector_5" d="M21.446 24.7539V49.6802H28.9674V53.8266H16.8818V24.7539H21.446Z" fill="#141414"/>
<path id="Vector_6" d="M41.1381 53.8266L40.3506 48.5552H34.7418L33.9543 53.8266H29.7598L34.4204 24.7539H41.106L45.7666 53.8266H41.1381ZM39.7238 44.6018L37.5221 29.8967L35.3204 44.6018H39.7238Z" fill="#141414"/>
<path id="Vector_7" d="M61.1156 46.8503C61.1156 51.5109 58.7853 54.1626 54.3014 54.1626C49.8176 54.1626 47.4873 51.5109 47.4873 46.8503V31.7274C47.4873 27.0668 49.8176 24.415 54.3014 24.415C58.7853 24.415 61.1156 27.0668 61.1156 31.7274V34.5559H56.7925V31.4381C56.7925 29.3649 55.8764 28.5774 54.43 28.5774C52.9675 28.5774 52.0675 29.3649 52.0675 31.4381V47.1395C52.0675 49.2127 52.9836 49.9681 54.43 49.9681C55.8764 49.9681 56.7925 49.2288 56.7925 47.1395V42.9933H61.1156V46.8503Z" fill="#141414"/>
<path id="Vector_8" d="M68.4577 44.8911V53.8266H63.8936V24.7539H68.4577V37.418L74.4362 24.7539H79.0004L72.6363 37.7072L79.0004 53.8266H74.3077L69.8559 42.2393L68.4577 44.8911Z" fill="#141414"/>
</g>
<g id="Group_3">
<path id="Vector_9" d="M57.0153 0.459961V20.2918H53.8975V0.459961H57.0153Z" fill="#141414"/>
<path id="Vector_10" d="M63.4619 0.239258C66.4993 0.239258 68.0421 2.05526 68.0421 5.22127V5.84807H65.1011V5.02842C65.1011 3.61416 64.5386 3.06769 63.5422 3.06769C62.5458 3.06769 61.9833 3.59809 61.9833 5.02842C61.9833 9.11049 68.0743 9.8658 68.0743 15.5389C68.0743 18.7049 66.4832 20.521 63.4297 20.521C60.3762 20.521 58.7852 18.7049 58.7852 15.5389V14.3175H61.7262V15.7318C61.7262 17.146 62.3529 17.6603 63.3333 17.6603C64.3297 17.6603 64.9404 17.146 64.9404 15.7318C64.9404 11.6497 58.8494 10.8944 58.8494 5.22127C58.8815 2.05526 60.4405 0.239258 63.4619 0.239258Z" fill="#141414"/>
</g>
</g>
</svg>
