<svg width="50" height="34" viewBox="0 0 50 34" fill="none" xmlns="http://www.w3.org/2000/svg">
<g id="Group 1000001214">
<g id="Group">
<path id="Vector" d="M11.0062 12.5886H8.32261L6.94043 0.13916H8.84721L9.89644 9.95545L10.8347 0.13916H12.7213L13.6999 10.0261L14.7087 0.13916H16.4137L15.0215 12.5886H12.4287L11.7124 5.9603L11.0062 12.5886Z" fill="white"/>
<path id="Vector_2" d="M17.3926 12.5886V0.13916H19.3498V5.47606H21.5693V0.13916H23.5568V12.5886H21.5693V7.25169H19.3498V12.5886H17.3926Z" fill="white"/>
<path id="Vector_3" d="M27.7913 0C29.7081 0 30.7574 1.14 30.7574 3.12747V9.60441C30.7574 11.5919 29.7081 12.7319 27.7913 12.7319C25.8744 12.7319 24.8252 11.5919 24.8252 9.60441V3.12747C24.8252 1.14 25.8744 0 27.7913 0ZM27.7913 10.9563C28.4168 10.9563 28.8001 10.6234 28.8001 9.72553V3.00642C28.8001 2.11861 28.4067 1.77562 27.7913 1.77562C27.1658 1.77562 26.7824 2.10852 26.7824 3.00642V9.72553C26.7824 10.6133 27.1658 10.9563 27.7913 10.9563Z" fill="white"/>
</g>
<g id="Group_2">
<path id="Vector_4" d="M8.5855 19.7355V20.3912C8.5855 22.2677 8.01045 23.4683 6.72918 24.0635C8.27275 24.6588 8.86798 26.0409 8.86798 27.978V29.461C8.86798 32.2757 7.38494 33.7891 4.50965 33.7891H0V15.5386H4.32806C7.30423 15.5386 8.5855 16.9208 8.5855 19.7355ZM2.87529 22.9639H3.99515C5.06455 22.9639 5.72031 22.4998 5.72031 21.0369V20.018C5.72031 18.7165 5.2764 18.1415 4.25744 18.1415H2.87529V22.9639ZM2.87529 31.1862H4.51975C5.48827 31.1862 6.00279 30.7423 6.00279 29.3904V27.7964C6.00279 26.1015 5.45799 25.5768 4.15654 25.5768H2.87529V31.1862Z" fill="white"/>
<path id="Vector_5" d="M13.4638 15.5386V31.1862H18.1854V33.7891H10.5986V15.5386H13.4638Z" fill="white"/>
<path id="Vector_6" d="M25.8244 33.7891L25.3301 30.4799H21.8091L21.3148 33.7891H18.6816L21.6074 15.5386H25.8043L28.73 33.7891H25.8244ZM24.9366 27.9982L23.5545 18.767L22.1723 27.9982H24.9366Z" fill="white"/>
<path id="Vector_7" d="M38.3658 29.4105C38.3658 32.3362 36.9029 34.0008 34.0881 34.0008C31.2734 34.0008 29.8105 32.3362 29.8105 29.4105V19.917C29.8105 16.9913 31.2734 15.3267 34.0881 15.3267C36.9029 15.3267 38.3658 16.9913 38.3658 19.917V21.6926H35.6519V19.7354C35.6519 18.434 35.0768 17.9396 34.1688 17.9396C33.2508 17.9396 32.6858 18.434 32.6858 19.7354V29.592C32.6858 30.8935 33.2609 31.3677 34.1688 31.3677C35.0768 31.3677 35.6519 30.9036 35.6519 29.592V26.9892H38.3658V29.4105Z" fill="white"/>
<path id="Vector_8" d="M42.9746 28.1798V33.7891H40.1094V15.5386H42.9746V23.4885L46.7276 15.5386H49.5928L45.5976 23.6701L49.5928 33.7891H46.6469L43.8523 26.5151L42.9746 28.1798Z" fill="white"/>
</g>
<g id="Group_3">
<path id="Vector_9" d="M35.7912 0.288574V12.7381H33.834V0.288574H35.7912Z" fill="white"/>
<path id="Vector_10" d="M39.8372 0.149414C41.7439 0.149414 42.7124 1.28941 42.7124 3.27689V3.67036H40.8662V3.15583C40.8662 2.26802 40.5131 1.92497 39.8876 1.92497C39.2621 1.92497 38.909 2.25793 38.909 3.15583C38.909 5.71836 42.7326 6.19251 42.7326 9.75382C42.7326 11.7413 41.7338 12.8814 39.817 12.8814C37.9001 12.8814 36.9014 11.7413 36.9014 9.75382V8.98707H38.7476V9.87488C38.7476 10.7627 39.141 11.0855 39.7565 11.0855C40.382 11.0855 40.7653 10.7627 40.7653 9.87488C40.7653 7.31235 36.9417 6.8382 36.9417 3.27689C36.9619 1.28941 37.9405 0.149414 39.8372 0.149414Z" fill="white"/>
</g>
</g>
</svg>
